### TheCloon ###

Feb 7, 2011

House S07E11 HDTV XviD-LOL

Episode 11, Season 7 Plot:
When Cuddy's mother Arlene is admitted to the hospital complaining of heart arrhythmia, House refuses to treat her, warning Cuddy that it won't end well. Cuddy insists, and House soon antagonizes Arlene so that she fires him. He continues to proscribe progressively more dangerous treatments behind the attending physician's back, putting Arlene's life at risk. Meanwhile, Taub is forced to take a part-time job with his brother-in-law and suffers a crisis of conscience.

[Video Information]


Format                           : AVI
Format/Info                      : Audio Video Interleave
File size                        : 350 MiB
Duration                         : 43mn 7s
Overall bit rate                 : 1 134 Kbps
Writing application              : transcode-1.0.6

Video
ID                               : 0
Format                           : MPEG-4 Visual
Format profile                   : Advanced Simple@L5
Format settings, BVOP            : 2
Format settings, QPel            : No
Format settings, GMC             : No warppoints
Format settings, Matrix          : Default (H.263)
Codec ID                         : XVID
Codec ID/Hint                    : XviD
Duration                         : 43mn 7s
Bit rate                         : 954 Kbps
Width                            : 624 pixels
Height                           : 352 pixels
Display aspect ratio             : 16:9
Frame rate                       : 23.976 fps
Color space                      : YUV
Chroma subsampling               : 4:2:0
Bit depth                        : 8 bits
Scan type                        : Progressive
Compression mode                 : Lossy
Bits/(Pixel*Frame)               : 0.181
Stream size                      : 294 MiB (84%)
Writing library                  : XviD 1.2.1 (UTC 2008-12-04)

Audio
ID                               : 1
Format                           : MPEG Audio
Format version                   : Version 1
Format profile                   : Layer 3
Mode                             : Joint stereo
Mode extension                   : MS Stereo
Codec ID                         : 55
Codec ID/Hint                    : MP3
Duration                         : 43mn 7s
Bit rate mode                    : Variable
Bit rate                         : 160 Kbps
Channel(s)                       : 2 channels
Sampling rate                    : 48.0 KHz
Compression mode                 : Lossy
Stream size                      : 51.5 MiB (15%)
Alignment                        : Aligned on interleaves
Interleave, duration             : 24 ms (0.58 video frame)
Writing library                  : LAME3.90.
Encoding settings                : -m j -V 4 -q 2 -lowpass 18 --abr 160


[Screenshots]  
http://bayimg.com/naDagAaDM 
http://bayimg.com/NadAhaadM

[TVRage Info URL] 
http://www.tvrage.com/house
